<?xml version="1.0" encoding="UTF-8" standalone="no"?>
<!DOCTYPE svg PUBLIC "-//W3C//DTD SVG 1.1//EN"
 "http://www.w3.org/Graphics/SVG/1.1/DTD/svg11.dtd">
<!-- Generated by graphviz version 2.26.0 (20091210.2329)
 -->
<!-- Title: snakemake_dag Pages: 1 -->
<svg width="327pt" height="548pt"
 viewBox="0.00 0.00 327.00 548.00" xmlns="http://www.w3.org/2000/svg" xmlns:xlink="http://www.w3.org/1999/xlink">
<g id="graph1" class="graph" transform="scale(1 1) rotate(0) translate(4 544)">
<title>snakemake_dag</title>
<polygon fill="white" stroke="white" points="-4,5 -4,-544 324,-544 324,5 -4,5"/>
<!-- 0 -->
<g id="node1" class="node"><title>0</title>
<polyline fill="none" stroke="#b6d856" stroke-width="2" points="150,-36 120,-36 "/>
<path fill="none" stroke="#b6d856" stroke-width="2" d="M120,-36C114,-36 108,-30 108,-24"/>
<polyline fill="none" stroke="#b6d856" stroke-width="2" points="108,-24 108,-12 "/>
<path fill="none" stroke="#b6d856" stroke-width="2" d="M108,-12C108,-6 114,-1.61846e-14 120,-1.46056e-14"/>
<polyline fill="none" stroke="#b6d856" stroke-width="2" points="120,-1.46056e-14 150,-6.71068e-15 "/>
<path fill="none" stroke="#b6d856" stroke-width="2" d="M150,-6.71068e-15C156,-5.1317e-15 162,-6 162,-12"/>
<polyline fill="none" stroke="#b6d856" stroke-width="2" points="162,-12 162,-24 "/>
<path fill="none" stroke="#b6d856" stroke-width="2" d="M162,-24C162,-30 156,-36 150,-36"/>
<text text-anchor="middle" x="135" y="-15.5" font-family="sans" font-size="10.00">all</text>
</g>
<!-- 1 -->
<g id="node2" class="node"><title>1</title>
<polyline fill="none" stroke="#d85656" stroke-width="2" points="112,-108 48,-108 "/>
<path fill="none" stroke="#d85656" stroke-width="2" d="M48,-108C42,-108 36,-102 36,-96"/>
<polyline fill="none" stroke="#d85656" stroke-width="2" points="36,-96 36,-84 "/>
<path fill="none" stroke="#d85656" stroke-width="2" d="M36,-84C36,-78 42,-72 48,-72"/>
<polyline fill="none" stroke="#d85656" stroke-width="2" points="48,-72 112,-72 "/>
<path fill="none" stroke="#d85656" stroke-width="2" d="M112,-72C118,-72 124,-78 124,-84"/>
<polyline fill="none" stroke="#d85656" stroke-width="2" points="124,-84 124,-96 "/>
<path fill="none" stroke="#d85656" stroke-width="2" d="M124,-96C124,-102 118,-108 112,-108"/>
<text text-anchor="middle" x="80" y="-87.5" font-family="sans" font-size="10.00">gatk_mutect2</text>
</g>
<!-- 1&#45;&gt;0 -->
<g id="edge2" class="edge"><title>1&#45;&gt;0</title>
<path fill="none" stroke="grey" stroke-width="2" d="M93.8788,-71.8314C100.214,-63.5386 107.838,-53.557 114.793,-44.4533"/>
<polygon fill="grey" stroke="grey" points="117.645,-46.4847 120.934,-36.4133 112.083,-42.2353 117.645,-46.4847"/>
</g>
<!-- 2 -->
<g id="node3" class="node"><title>2</title>
<polyline fill="none" stroke="#d85656" stroke-width="2" points="223,-108 159,-108 "/>
<path fill="none" stroke="#d85656" stroke-width="2" d="M159,-108C153,-108 147,-102 147,-96"/>
<polyline fill="none" stroke="#d85656" stroke-width="2" points="147,-96 147,-84 "/>
<path fill="none" stroke="#d85656" stroke-width="2" d="M147,-84C147,-78 153,-72 159,-72"/>
<polyline fill="none" stroke="#d85656" stroke-width="2" points="159,-72 223,-72 "/>
<path fill="none" stroke="#d85656" stroke-width="2" d="M223,-72C229,-72 235,-78 235,-84"/>
<polyline fill="none" stroke="#d85656" stroke-width="2" points="235,-84 235,-96 "/>
<path fill="none" stroke="#d85656" stroke-width="2" d="M235,-96C235,-102 229,-108 223,-108"/>
<text text-anchor="middle" x="191" y="-87.5" font-family="sans" font-size="10.00">gatk_mutect2</text>
</g>
<!-- 2&#45;&gt;0 -->
<g id="edge4" class="edge"><title>2&#45;&gt;0</title>
<path fill="none" stroke="grey" stroke-width="2" d="M176.869,-71.8314C170.419,-63.5386 162.655,-53.557 155.575,-44.4533"/>
<polygon fill="grey" stroke="grey" points="158.224,-42.158 149.321,-36.4133 152.698,-46.4556 158.224,-42.158"/>
</g>
<!-- 3 -->
<g id="node4" class="node"><title>3</title>
<polyline fill="none" stroke="#56d892" stroke-width="2" points="112,-180 26,-180 "/>
<path fill="none" stroke="#56d892" stroke-width="2" d="M26,-180C20,-180 14,-174 14,-168"/>
<polyline fill="none" stroke="#56d892" stroke-width="2" points="14,-168 14,-156 "/>
<path fill="none" stroke="#56d892" stroke-width="2" d="M14,-156C14,-150 20,-144 26,-144"/>
<polyline fill="none" stroke="#56d892" stroke-width="2" points="26,-144 112,-144 "/>
<path fill="none" stroke="#56d892" stroke-width="2" d="M112,-144C118,-144 124,-150 124,-156"/>
<polyline fill="none" stroke="#56d892" stroke-width="2" points="124,-156 124,-168 "/>
<path fill="none" stroke="#56d892" stroke-width="2" d="M124,-168C124,-174 118,-180 112,-180"/>
<text text-anchor="middle" x="69" y="-159.5" font-family="sans" font-size="10.00">gatk_applyREcalab</text>
</g>
<!-- 3&#45;&gt;1 -->
<g id="edge6" class="edge"><title>3&#45;&gt;1</title>
<path fill="none" stroke="grey" stroke-width="2" d="M71.7758,-143.831C72.9522,-136.131 74.3511,-126.974 75.6586,-118.417"/>
<polygon fill="grey" stroke="grey" points="79.1364,-118.827 77.1869,-108.413 72.2167,-117.77 79.1364,-118.827"/>
</g>
<!-- 4 -->
<g id="node5" class="node"><title>4</title>
<polyline fill="none" stroke="#56d892" stroke-width="2" points="240,-180 154,-180 "/>
<path fill="none" stroke="#56d892" stroke-width="2" d="M154,-180C148,-180 142,-174 142,-168"/>
<polyline fill="none" stroke="#56d892" stroke-width="2" points="142,-168 142,-156 "/>
<path fill="none" stroke="#56d892" stroke-width="2" d="M142,-156C142,-150 148,-144 154,-144"/>
<polyline fill="none" stroke="#56d892" stroke-width="2" points="154,-144 240,-144 "/>
<path fill="none" stroke="#56d892" stroke-width="2" d="M240,-144C246,-144 252,-150 252,-156"/>
<polyline fill="none" stroke="#56d892" stroke-width="2" points="252,-156 252,-168 "/>
<path fill="none" stroke="#56d892" stroke-width="2" d="M252,-168C252,-174 246,-180 240,-180"/>
<text text-anchor="middle" x="197" y="-159.5" font-family="sans" font-size="10.00">gatk_applyREcalab</text>
</g>
<!-- 4&#45;&gt;2 -->
<g id="edge8" class="edge"><title>4&#45;&gt;2</title>
<path fill="none" stroke="grey" stroke-width="2" d="M195.486,-143.831C194.844,-136.131 194.081,-126.974 193.368,-118.417"/>
<polygon fill="grey" stroke="grey" points="196.853,-118.088 192.534,-108.413 189.877,-118.669 196.853,-118.088"/>
</g>
<!-- 5 -->
<g id="node6" class="node"><title>5</title>
<polyline fill="none" stroke="#567bd8" stroke-width="2" points="125,-252 41,-252 "/>
<path fill="none" stroke="#567bd8" stroke-width="2" d="M41,-252C35,-252 29,-246 29,-240"/>
<polyline fill="none" stroke="#567bd8" stroke-width="2" points="29,-240 29,-228 "/>
<path fill="none" stroke="#567bd8" stroke-width="2" d="M29,-228C29,-222 35,-216 41,-216"/>
<polyline fill="none" stroke="#567bd8" stroke-width="2" points="41,-216 125,-216 "/>
<path fill="none" stroke="#567bd8" stroke-width="2" d="M125,-216C131,-216 137,-222 137,-228"/>
<polyline fill="none" stroke="#567bd8" stroke-width="2" points="137,-228 137,-240 "/>
<path fill="none" stroke="#567bd8" stroke-width="2" d="M137,-240C137,-246 131,-252 125,-252"/>
<text text-anchor="middle" x="83" y="-231.5" font-family="sans" font-size="10.00">gatk_baseREcalab</text>
</g>
<!-- 5&#45;&gt;3 -->
<g id="edge10" class="edge"><title>5&#45;&gt;3</title>
<path fill="none" stroke="grey" stroke-width="2" d="M79.4672,-215.831C77.9699,-208.131 76.1895,-198.974 74.5255,-190.417"/>
<polygon fill="grey" stroke="grey" points="77.9248,-189.561 72.5804,-180.413 71.0535,-190.897 77.9248,-189.561"/>
</g>
<!-- 6 -->
<g id="node7" class="node"><title>6</title>
<polyline fill="none" stroke="#56d8b9" stroke-width="2" points="98,-324 30,-324 "/>
<path fill="none" stroke="#56d8b9" stroke-width="2" d="M30,-324C24,-324 18,-318 18,-312"/>
<polyline fill="none" stroke="#56d8b9" stroke-width="2" points="18,-312 18,-300 "/>
<path fill="none" stroke="#56d8b9" stroke-width="2" d="M18,-300C18,-294 24,-288 30,-288"/>
<polyline fill="none" stroke="#56d8b9" stroke-width="2" points="30,-288 98,-288 "/>
<path fill="none" stroke="#56d8b9" stroke-width="2" d="M98,-288C104,-288 110,-294 110,-300"/>
<polyline fill="none" stroke="#56d8b9" stroke-width="2" points="110,-300 110,-312 "/>
<path fill="none" stroke="#56d8b9" stroke-width="2" d="M110,-312C110,-318 104,-324 98,-324"/>
<text text-anchor="middle" x="64" y="-303.5" font-family="sans" font-size="10.00">bwa_picard_md</text>
</g>
<!-- 6&#45;&gt;3 -->
<g id="edge12" class="edge"><title>6&#45;&gt;3</title>
<path fill="none" stroke="grey" stroke-width="2" d="M43.5974,-287.563C34.5059,-277.967 24.7838,-265.444 20,-252 14.6362,-236.926 14.2373,-230.926 20,-216 24.1192,-205.331 31.4336,-195.467 39.1749,-187.168"/>
<polygon fill="grey" stroke="grey" points="41.7348,-189.558 46.325,-180.009 36.7819,-184.611 41.7348,-189.558"/>
</g>
<!-- 6&#45;&gt;5 -->
<g id="edge18" class="edge"><title>6&#45;&gt;5</title>
<path fill="none" stroke="grey" stroke-width="2" d="M68.7945,-287.831C70.8489,-280.046 73.296,-270.773 75.5756,-262.135"/>
<polygon fill="grey" stroke="grey" points="78.9735,-262.975 78.1409,-252.413 72.2052,-261.189 78.9735,-262.975"/>
</g>
<!-- 7 -->
<g id="node8" class="node"><title>7</title>
<polyline fill="none" stroke="#56d8b9" stroke-width="2" points="253,-324 185,-324 "/>
<path fill="none" stroke="#56d8b9" stroke-width="2" d="M185,-324C179,-324 173,-318 173,-312"/>
<polyline fill="none" stroke="#56d8b9" stroke-width="2" points="173,-312 173,-300 "/>
<path fill="none" stroke="#56d8b9" stroke-width="2" d="M173,-300C173,-294 179,-288 185,-288"/>
<polyline fill="none" stroke="#56d8b9" stroke-width="2" points="185,-288 253,-288 "/>
<path fill="none" stroke="#56d8b9" stroke-width="2" d="M253,-288C259,-288 265,-294 265,-300"/>
<polyline fill="none" stroke="#56d8b9" stroke-width="2" points="265,-300 265,-312 "/>
<path fill="none" stroke="#56d8b9" stroke-width="2" d="M265,-312C265,-318 259,-324 253,-324"/>
<text text-anchor="middle" x="219" y="-303.5" font-family="sans" font-size="10.00">bwa_picard_md</text>
</g>
<!-- 7&#45;&gt;4 -->
<g id="edge14" class="edge"><title>7&#45;&gt;4</title>
<path fill="none" stroke="grey" stroke-width="2" d="M212.018,-287.793C208.373,-277.455 204.22,-264.183 202,-252 198.265,-231.505 197.063,-207.987 196.769,-190.134"/>
<polygon fill="grey" stroke="grey" points="200.268,-190.056 196.688,-180.085 193.269,-190.112 200.268,-190.056"/>
</g>
<!-- 8 -->
<g id="node9" class="node"><title>8</title>
<polyline fill="none" stroke="#567bd8" stroke-width="2" points="307,-252 223,-252 "/>
<path fill="none" stroke="#567bd8" stroke-width="2" d="M223,-252C217,-252 211,-246 211,-240"/>
<polyline fill="none" stroke="#567bd8" stroke-width="2" points="211,-240 211,-228 "/>
<path fill="none" stroke="#567bd8" stroke-width="2" d="M211,-228C211,-222 217,-216 223,-216"/>
<polyline fill="none" stroke="#567bd8" stroke-width="2" points="223,-216 307,-216 "/>
<path fill="none" stroke="#567bd8" stroke-width="2" d="M307,-216C313,-216 319,-222 319,-228"/>
<polyline fill="none" stroke="#567bd8" stroke-width="2" points="319,-228 319,-240 "/>
<path fill="none" stroke="#567bd8" stroke-width="2" d="M319,-240C319,-246 313,-252 307,-252"/>
<text text-anchor="middle" x="265" y="-231.5" font-family="sans" font-size="10.00">gatk_baseREcalab</text>
</g>
<!-- 7&#45;&gt;8 -->
<g id="edge24" class="edge"><title>7&#45;&gt;8</title>
<path fill="none" stroke="grey" stroke-width="2" d="M230.608,-287.831C235.798,-279.708 242.023,-269.964 247.742,-261.012"/>
<polygon fill="grey" stroke="grey" points="250.801,-262.725 253.236,-252.413 244.903,-258.956 250.801,-262.725"/>
</g>
<!-- 8&#45;&gt;4 -->
<g id="edge16" class="edge"><title>8&#45;&gt;4</title>
<path fill="none" stroke="grey" stroke-width="2" d="M247.841,-215.831C239.849,-207.369 230.196,-197.149 221.458,-187.897"/>
<polygon fill="grey" stroke="grey" points="223.801,-185.28 214.39,-180.413 218.712,-190.087 223.801,-185.28"/>
</g>
<!-- 9 -->
<g id="node10" class="node"><title>9</title>
<polyline fill="none" stroke="#d87d56" stroke-width="2" points="95,-396 33,-396 "/>
<path fill="none" stroke="#d87d56" stroke-width="2" d="M33,-396C27,-396 21,-390 21,-384"/>
<polyline fill="none" stroke="#d87d56" stroke-width="2" points="21,-384 21,-372 "/>
<path fill="none" stroke="#d87d56" stroke-width="2" d="M21,-372C21,-366 27,-360 33,-360"/>
<polyline fill="none" stroke="#d87d56" stroke-width="2" points="33,-360 95,-360 "/>
<path fill="none" stroke="#d87d56" stroke-width="2" d="M95,-360C101,-360 107,-366 107,-372"/>
<polyline fill="none" stroke="#d87d56" stroke-width="2" points="107,-372 107,-384 "/>
<path fill="none" stroke="#d87d56" stroke-width="2" d="M107,-384C107,-390 101,-396 95,-396"/>
<text text-anchor="middle" x="64" y="-375.5" font-family="sans" font-size="10.00">bwa_picard_rg</text>
</g>
<!-- 9&#45;&gt;6 -->
<g id="edge20" class="edge"><title>9&#45;&gt;6</title>
<path fill="none" stroke="grey" stroke-width="2" d="M64,-359.831C64,-352.131 64,-342.974 64,-334.417"/>
<polygon fill="grey" stroke="grey" points="67.5001,-334.413 64,-324.413 60.5001,-334.413 67.5001,-334.413"/>
</g>
<!-- 10 -->
<g id="node11" class="node"><title>10</title>
<polyline fill="none" stroke="#d87d56" stroke-width="2" points="250,-396 188,-396 "/>
<path fill="none" stroke="#d87d56" stroke-width="2" d="M188,-396C182,-396 176,-390 176,-384"/>
<polyline fill="none" stroke="#d87d56" stroke-width="2" points="176,-384 176,-372 "/>
<path fill="none" stroke="#d87d56" stroke-width="2" d="M176,-372C176,-366 182,-360 188,-360"/>
<polyline fill="none" stroke="#d87d56" stroke-width="2" points="188,-360 250,-360 "/>
<path fill="none" stroke="#d87d56" stroke-width="2" d="M250,-360C256,-360 262,-366 262,-372"/>
<polyline fill="none" stroke="#d87d56" stroke-width="2" points="262,-372 262,-384 "/>
<path fill="none" stroke="#d87d56" stroke-width="2" d="M262,-384C262,-390 256,-396 250,-396"/>
<text text-anchor="middle" x="219" y="-375.5" font-family="sans" font-size="10.00">bwa_picard_rg</text>
</g>
<!-- 10&#45;&gt;7 -->
<g id="edge22" class="edge"><title>10&#45;&gt;7</title>
<path fill="none" stroke="grey" stroke-width="2" d="M219,-359.831C219,-352.131 219,-342.974 219,-334.417"/>
<polygon fill="grey" stroke="grey" points="222.5,-334.413 219,-324.413 215.5,-334.413 222.5,-334.413"/>
</g>
<!-- 11 -->
<g id="node12" class="node"><title>11</title>
<polyline fill="none" stroke="#56d86b" stroke-width="2" points="116,-468 12,-468 "/>
<path fill="none" stroke="#56d86b" stroke-width="2" d="M12,-468C6,-468 4.73695e-14,-462 3.78956e-14,-456"/>
<polyline fill="none" stroke="#56d86b" stroke-width="2" points="3.78956e-14,-456 1.89478e-14,-444 "/>
<path fill="none" stroke="#56d86b" stroke-width="2" d="M1.89478e-14,-444C9.4739e-15,-438 6,-432 12,-432"/>
<polyline fill="none" stroke="#56d86b" stroke-width="2" points="12,-432 116,-432 "/>
<path fill="none" stroke="#56d86b" stroke-width="2" d="M116,-432C122,-432 128,-438 128,-444"/>
<polyline fill="none" stroke="#56d86b" stroke-width="2" points="128,-444 128,-456 "/>
<path fill="none" stroke="#56d86b" stroke-width="2" d="M128,-456C128,-462 122,-468 116,-468"/>
<text text-anchor="middle" x="64" y="-454" font-family="sans" font-size="10.00">bwa_align</text>
<text text-anchor="middle" x="64" y="-441" font-family="sans" font-size="10.00">reference: GATK_hg38</text>
</g>
<!-- 11&#45;&gt;9 -->
<g id="edge26" class="edge"><title>11&#45;&gt;9</title>
<path fill="none" stroke="grey" stroke-width="2" d="M64,-431.831C64,-424.131 64,-414.974 64,-406.417"/>
<polygon fill="grey" stroke="grey" points="67.5001,-406.413 64,-396.413 60.5001,-406.413 67.5001,-406.413"/>
</g>
<!-- 12 -->
<g id="node13" class="node"><title>12</title>
<polyline fill="none" stroke="#56d86b" stroke-width="2" points="271,-468 167,-468 "/>
<path fill="none" stroke="#56d86b" stroke-width="2" d="M167,-468C161,-468 155,-462 155,-456"/>
<polyline fill="none" stroke="#56d86b" stroke-width="2" points="155,-456 155,-444 "/>
<path fill="none" stroke="#56d86b" stroke-width="2" d="M155,-444C155,-438 161,-432 167,-432"/>
<polyline fill="none" stroke="#56d86b" stroke-width="2" points="167,-432 271,-432 "/>
<path fill="none" stroke="#56d86b" stroke-width="2" d="M271,-432C277,-432 283,-438 283,-444"/>
<polyline fill="none" stroke="#56d86b" stroke-width="2" points="283,-444 283,-456 "/>
<path fill="none" stroke="#56d86b" stroke-width="2" d="M283,-456C283,-462 277,-468 271,-468"/>
<text text-anchor="middle" x="219" y="-454" font-family="sans" font-size="10.00">bwa_align</text>
<text text-anchor="middle" x="219" y="-441" font-family="sans" font-size="10.00">reference: GATK_hg38</text>
</g>
<!-- 12&#45;&gt;10 -->
<g id="edge28" class="edge"><title>12&#45;&gt;10</title>
<path fill="none" stroke="grey" stroke-width="2" d="M219,-431.831C219,-424.131 219,-414.974 219,-406.417"/>
<polygon fill="grey" stroke="grey" points="222.5,-406.413 219,-396.413 215.5,-406.413 222.5,-406.413"/>
</g>
<!-- 13 -->
<g id="node14" class="node"><title>13</title>
<polyline fill="none" stroke="#68d856" stroke-width="2" points="104,-540 24,-540 "/>
<path fill="none" stroke="#68d856" stroke-width="2" d="M24,-540C18,-540 12,-534 12,-528"/>
<polyline fill="none" stroke="#68d856" stroke-width="2" points="12,-528 12,-516 "/>
<path fill="none" stroke="#68d856" stroke-width="2" d="M12,-516C12,-510 18,-504 24,-504"/>
<polyline fill="none" stroke="#68d856" stroke-width="2" points="24,-504 104,-504 "/>
<path fill="none" stroke="#68d856" stroke-width="2" d="M104,-504C110,-504 116,-510 116,-516"/>
<polyline fill="none" stroke="#68d856" stroke-width="2" points="116,-516 116,-528 "/>
<path fill="none" stroke="#68d856" stroke-width="2" d="M116,-528C116,-534 110,-540 104,-540"/>
<text text-anchor="middle" x="64" y="-526" font-family="sans" font-size="10.00">cutadapt</text>
<text text-anchor="middle" x="64" y="-513" font-family="sans" font-size="10.00">sample: normal_1</text>
</g>
<!-- 13&#45;&gt;11 -->
<g id="edge30" class="edge"><title>13&#45;&gt;11</title>
<path fill="none" stroke="grey" stroke-width="2" d="M64,-503.831C64,-496.131 64,-486.974 64,-478.417"/>
<polygon fill="grey" stroke="grey" points="67.5001,-478.413 64,-468.413 60.5001,-478.413 67.5001,-478.413"/>
</g>
<!-- 14 -->
<g id="node15" class="node"><title>14</title>
<polyline fill="none" stroke="#68d856" stroke-width="2" points="257,-540 181,-540 "/>
<path fill="none" stroke="#68d856" stroke-width="2" d="M181,-540C175,-540 169,-534 169,-528"/>
<polyline fill="none" stroke="#68d856" stroke-width="2" points="169,-528 169,-516 "/>
<path fill="none" stroke="#68d856" stroke-width="2" d="M169,-516C169,-510 175,-504 181,-504"/>
<polyline fill="none" stroke="#68d856" stroke-width="2" points="181,-504 257,-504 "/>
<path fill="none" stroke="#68d856" stroke-width="2" d="M257,-504C263,-504 269,-510 269,-516"/>
<polyline fill="none" stroke="#68d856" stroke-width="2" points="269,-516 269,-528 "/>
<path fill="none" stroke="#68d856" stroke-width="2" d="M269,-528C269,-534 263,-540 257,-540"/>
<text text-anchor="middle" x="219" y="-526" font-family="sans" font-size="10.00">cutadapt</text>
<text text-anchor="middle" x="219" y="-513" font-family="sans" font-size="10.00">sample: tumor_1</text>
</g>
<!-- 14&#45;&gt;12 -->
<g id="edge32" class="edge"><title>14&#45;&gt;12</title>
<path fill="none" stroke="grey" stroke-width="2" d="M219,-503.831C219,-496.131 219,-486.974 219,-478.417"/>
<polygon fill="grey" stroke="grey" points="222.5,-478.413 219,-468.413 215.5,-478.413 222.5,-478.413"/>
</g>
</g>
</svg>
